<svg id="Layer_1" enable-background="new 0 0 512.001 512.001" height="512" viewBox="0 0 512.001 512.001" width="512" xmlns="http://www.w3.org/2000/svg"><g><g clip-rule="evenodd" fill="#88df8e" fill-rule="evenodd"><path d="m256 151.176c9.23 0 19.771-5.456 29.416-14.364 16.624-15.351 30.584-40.955 30.584-66.554 0-33.28-26.863-60.258-60-60.258s-60 26.978-60 60.258c0 25.599 13.961 51.203 30.583 66.555 9.646 8.907 20.187 14.363 29.417 14.363z"/><path d="m336.001 211.176c0-33.626-21.028-62.58-50.584-74.363-9.645 8.908-20.186 14.364-29.416 14.364s-19.772-5.456-29.417-14.364c-29.556 11.782-50.584 40.735-50.584 74.363v150.822c0 21.999 18.001 40 40 40v100.004h40 40v-100.004c21.998 0 40-18.002 40-40v-150.822z"/></g><g><path d="m241.685 98.07c2.56 0 5.118-.976 7.071-2.929 3.905-3.905 3.905-10.237 0-14.143-6.235-6.235-14.525-9.669-23.343-9.669-5.522 0-10 4.477-10 10s4.478 10 10 10c3.476 0 6.742 1.354 9.2 3.812 1.954 1.953 4.512 2.929 7.072 2.929z"/><path d="m270.315 98.07c2.56 0 5.118-.976 7.071-2.929 2.458-2.458 5.726-3.812 9.201-3.812 5.522 0 10-4.477 10-10s-4.478-10-10-10c-8.818 0-17.108 3.434-23.344 9.669-3.905 3.905-3.905 10.237 0 14.143 1.954 1.953 4.512 2.929 7.072 2.929z"/><path d="m336.002 492.001h-30.002v-81.021c22.734-4.692 40-25.033 40-48.982v-150.822c0-18.231-5.481-35.822-15.852-50.87-7.48-10.854-17.109-19.841-28.265-26.481.478-.586.952-1.178 1.422-1.78 14.424-18.455 22.695-40.976 22.695-61.787 0-38.74-31.401-70.258-70-70.258s-70 31.518-70 70.258c0 20.812 8.271 43.332 22.694 61.787.47.602.945 1.194 1.422 1.779-11.17 6.649-20.808 15.65-28.291 26.519-10.352 15.039-15.825 32.617-15.825 50.833v150.822c0 24.01 17.246 44.308 40 48.986v81.018h-30.001c-5.522 0-10 4.477-10 10s4.478 10 10 10h160.003c5.522 0 10-4.477 10-10s-4.477-10.001-10-10.001zm-130.002-421.743c0-27.713 22.43-50.258 50-50.258s50 22.545 50 50.258c0 35.875-31.637 70.918-50 70.918s-50-35.044-50-70.918zm90 131.733c-5.522 0-10 4.477-10 10v280.01h-20v-130c0-5.523-4.478-10-10-10s-10 4.477-10 10v130h-20v-235.006c0-5.523-4.478-10-10-10s-10 4.477-10 10v133.275c-11.623-4.152-20-15.311-20-28.272v-150.822c0-26.783 15.098-50.823 38.897-62.662 10.303 8.121 21.185 12.663 31.103 12.663 9.917 0 20.798-4.542 31.101-12.662 23.803 11.837 38.899 35.871 38.899 62.661v150.822c0 12.928-8.386 24.104-20 28.266v-178.273c0-5.523-4.477-10-10-10z"/><path d="m216 201.995c-5.522 0-10 4.48-10 10.003s4.478 10 10 10 10-4.477 10-10v-.007c0-5.523-4.477-9.996-10-9.996z"/></g></g></svg>